<svg xmlns="http://www.w3.org/2000/svg" viewBox="0 0 800 600"><rect width="800" height="600" fill="#b8c7ae"/><circle cx="445" cy="166" r="107" fill="#edd5a0" opacity=".75"/><path d="M0 286c169-104 286-78 420-99 150-24 282-6 380 78v335H0Z" fill="#82996f"/><path d="M0 379c141-64 278-42 420-13 155 30 258-21 380-60v294H0Z" fill="#607d65"/><path d="M308 600c61-173 116-247 178-265 41-13 93-7 124-4C509 407 478 469 485 600Z" fill="#ceb895"/><path d="M0 0h90v600H0z" fill="#4b6751"/><path d="M54 0h38m-32 149C94 92 163 68 230 76M59 237C93 158 174 156 239 174M51 308c35-52 121-61 179-22" fill="none" stroke="#4b6751" stroke-width="24"/><path d="M596 0h61v600h-61z" fill="#526b54"/><path d="M630 154c-54-77-140-91-219-81m219 156c-57-64-142-70-205-48m206 148c-56-48-130-47-177-19" fill="none" stroke="#526b54" stroke-width="22"/><g fill="#6e8d67"><ellipse cx="219" cy="75" rx="80" ry="35"/><ellipse cx="209" cy="170" rx="100" ry="39"/><ellipse cx="190" cy="287" rx="92" ry="35"/><ellipse cx="429" cy="75" rx="88" ry="31"/><ellipse cx="434" cy="180" rx="98" ry="33"/><ellipse cx="458" cy="307" rx="69" ry="30"/></g></svg>
